PathFileType	4	(X/Y/Z)	37_2_28_p1_0-669.trc
DataRate	CameraRate	NumFrames	NumMarkers	Units	OrigDataRate	OrigDataStartFrame	OrigNumFrames
55.0	55.0	5	27	m	55.0	83	670
Frame#	Time	RHip			RKnee			RAnkle			RBigToe			RSmallToe			RHeel			LHip			LKnee			LAnkle			LBigToe			LSmallToe			LHeel			Neck			Head			Nose			RShoulder			RElbow			RWrist			RThumb			RIndex			RPinky			LShoulder			LElbow			LWrist			LThumb			LIndex			LPinky			
		X1	Y1	Z1	X2	Y2	Z2	X3	Y3	Z3	X4	Y4	Z4	X5	Y5	Z5	X6	Y6	Z6	X7	Y7	Z7	X8	Y8	Z8	X9	Y9	Z9	X10	Y10	Z10	X11	Y11	Z11	X12	Y12	Z12	X13	Y13	Z13	X14	Y14	Z14	X15	Y15	Z15	X16	Y16	Z16	X17	Y17	Z17	X18	Y18	Z18	X19	Y19	Z19	X20	Y20	Z20	X21	Y21	Z21	X22	Y22	Z22	X23	Y23	Z23	X24	Y24	Z24	X25	Y25	Z25	X26	Y26	Z26	X27	Y27	Z27	
83	1.509090909090909	0.3743287099358576	0.6374079401915795	0.5527410476207367	0.35516105631686645	0.822508175471407	0.9711484209717983	0.37164575321541493	0.9424492927686674	1.3717351007809537	0.3073533079662283	0.8285118619795268	1.4177851798163665	0.3836870951544753	0.8289121269120706	1.4206351503600598	0.3998559084425111	1.0373916562320271	1.4401220633619014	0.19873222376396643	0.7350099224181219	0.5417985224549077	0.16252490950797135	0.928614263353296	0.9578247497857517	0.16000965256594502	1.0316501441038237	1.3808090596226	0.16213419025677328	0.8515750015105182	1.4156775297145991	0.10491628158870982	0.9324087094216856	1.4316071123438778	0.18435313230355152	1.0605099166323364	1.4200839285324278	0.2939860815137443	0.5707593660378646	0.010769878507409028	0.27438742330281407	0.4706331863329714	-0.2279097662126107	0.24882399421082685	0.45236036100622184	-0.071189300922837	0.44199067233553524	0.4993468810947559	0.108680978793178	0.41473946791658395	0.45182819456758905	0.35863417045143914	0.20122342974988244	0.33697985889884685	0.31207845910114945	0.06495971482730072	0.31105739464949245	0.26628292913443663	0.04483884924452555	0.3022954121770358	0.2718861722268406	0.06761842469457166	0.31393698781415036	0.33172392394936906	0.16121095059483395	0.6980768115603186	0.07850097689454519	0.11858629140168314	0.8015934614270115	0.30246360571060843	0.04956265389162293	0.4989852573089324	0.3535318771891017	0.01159441818010448	0.36489502478592456	0.3090196488161555	-0.006664316859590013	0.33639870613264095	0.34962228087809116	0.014341160316254487	0.34672442287603633	0.3894145598224518
84	1.5272727272727273	0.38254182003787257	0.6658035760931651	0.5536202134025259	0.35335953629661454	0.8208907841004922	0.971212475104513	0.37744884569126674	0.9576490970113882	1.3761654273088564	0.2960890306667265	0.7981124456218781	1.408089277881572	0.3820395496713259	0.8140325824151021	1.4155890782113554	0.39699985001841337	1.0608842693458145	1.4560772251784888	0.19889335584242768	0.7353159969765048	0.5417234186636541	0.16248999991233593	0.9283843237131685	0.9617017174591478	0.16698999879716792	1.0495875559801136	1.386433819059283	0.16227281313868133	0.8411611359418459	1.4086732244791442	0.1082025818429945	0.9357626543379316	1.4285355262690602	0.18777530551820742	1.0637009475501567	1.4235509390016865	0.2940679517652798	0.5708002505670263	0.010843444678252639	0.2746687553356786	0.4721260181846593	-0.22493497829978598	0.2486443191726522	0.4518809847844089	-0.07110558372211077	0.4409706187658141	0.5142149001593245	0.1102567149776346	0.40511939733175045	0.43343089348443925	0.35904482334054005	0.2010409766766433	0.33679602273697434	0.31169503224865225	0.058639148006653284	0.3128882395123923	0.2659850333078125	0.039087224361255814	0.30478178577742293	0.27170758153420466	0.059200488280685006	0.30183556347772306	0.3248240910046143	0.1612078645347314	0.698209593961831	0.07842397187867178	0.11923744761464998	0.8025096464664904	0.30196992978504733	0.045847805812805564	0.5099078926722912	0.34564519519278386	0.009501775488250765	0.37785713745821964	0.30845939553848295	-0.007257348500668323	0.33504451917564043	0.3420613455025159	0.012806914669818857	0.3458416463811272	0.38455821454401967
85	1.5454545454545454	0.3827900922709151	0.665800599541171	0.55330725130517	0.35422628418877544	0.8199477881292321	0.9667058743964022	0.3729531395433642	0.9565528790817519	1.3756862796361216	0.2996330111742486	0.7991045592209097	1.4086980377119354	0.3825658962671983	0.8142273368537067	1.4154441284615673	0.3966299399814193	1.0449824072947542	1.4565804731403962	0.1982416637863985	0.7328401556244087	0.5376749754831202	0.161536663423381	0.925619494018103	0.9531704857236126	0.17015137630619712	1.0320130958591582	1.3815831732302852	0.17174818643639	0.8576241627314415	1.4142356996789092	0.10867438384182367	0.9368286415866209	1.428884918547883	0.18341004528725763	1.0602629796736591	1.4222083675160027	0.29401428972987087	0.5710495973449192	0.010803506029649457	0.2744019942280185	0.470648028429495	-0.22770700350495288	0.2487015050023519	0.4518676644578361	-0.0711300088877492	0.44186957148649825	0.49929547825320264	0.10857451443663631	0.39308040122814963	0.43331797099661096	0.3521560754608711	0.19069968456952266	0.33696484279692235	0.3085433404819568	0.058175101597720956	0.3121898892209423	0.2586102281862912	0.03723773418204988	0.3027746994072486	0.27006250838969076	0.04837668525060468	0.2997360597294883	0.3214243337226517	0.16116443588950682	0.6980537644156886	0.07835582231150513	0.10814190095035782	0.7559970664385155	0.30660546752168916	0.052683595603154144	0.4853218842290944	0.3467677677974114	0.004006688404299192	0.35637623754522696	0.3129813449034991	-0.0068596642567016666	0.3341521707547123	0.3400737627633594	0.015680086772615325	0.3292034744305472	0.3753150744578072
86	1.5636363636363637	0.37926359864847675	0.6390555800489937	0.5522008256908328	0.3532821923374745	0.8207965285604658	0.9711362729482488	0.36700002713174124	0.9415153745254876	1.3714243777758774	0.2954484155876451	0.7969576689280184	1.4078889235620342	0.38173111792198045	0.8136193280830019	1.4155388886719669	0.39672864848052697	1.0440390139174918	1.459915486283352	0.1988819498694511	0.7351325002053329	0.541602135868093	0.16251723814725627	0.9284677532501532	0.9578475426900956	0.1691430711135859	1.033588048766239	1.3863707740373434	0.1674353089101246	0.8552769159821688	1.4135474471888443	0.10735978381414477	0.937671681426292	1.4341134000832594	0.18683503240177796	1.0663447115679225	1.4301478529166665	0.29397916885169345	0.5708420044930006	0.010797644809558039	0.2744511003133074	0.47060409818079957	-0.22763450795117765	0.24870807323540808	0.4517418868920579	-0.07111256551566887	0.4403367776541277	0.5124181275404235	0.10699143074666642	0.3920701855422552	0.4310566846079513	0.34505852415390437	0.1779760585229001	0.3250924374707316	0.30924374968180157	0.0577998323079096	0.3207487344196255	0.2577550353396951	0.02901892402857001	0.3126720321739195	0.26801322932735694	0.043718264786223836	0.2961658988768454	0.32137558519243925	0.15713178143543294	0.6958809779833879	0.07854619803176849	0.10709536788101849	0.7257914771257582	0.30712307636082	0.05847198322571658	0.43497836559944286	0.33765955997674485	-0.00838451635871003	0.4200863263943681	0.2805184581039957	-0.009996047288234501	0.3403586501501303	0.32833693849682	0.020864129271137153	0.3111652308455292	0.3655203000446539
87	1.5818181818181818	0.38276162423419596	0.6654927923357062	0.5531419682927274	0.35332280827651125	0.8214552444923782	0.9716905592529448	0.37201453509270493	0.9575100116953433	1.380426789154858	0.3029572387249666	0.7811165367991709	1.4031393406066355	0.3850759111976264	0.7975797911996318	1.410282041389162	0.39560897247578697	1.0457343025613477	1.465081837291874	0.1987800002556257	0.735368398685984	0.5416536177379713	0.16258737664600828	0.9283321466517362	0.9618070647499235	0.16598029217943977	1.0511737920372481	1.3913419704155119	0.1672025930268626	0.8543047419589129	1.4131257368543426	0.10731453362835469	0.937232177369904	1.43396058315427	0.18194750638458818	1.0622164911384075	1.4285635467109268	0.2940845983783287	0.5710133296980086	0.010914998803275072	0.2743502854695967	0.4706121256624282	-0.22767389968834706	0.2488511945088113	0.4532460056407585	-0.0680593668869384	0.4403032934564025	0.5125805867366058	0.10694058625262101	0.3837940466904961	0.42962896976535725	0.33431830036379495	0.17387456672860935	0.31448698528142177	0.3062929120440774	0.04655362552541537	0.3121725670962394	0.25825118472173647	0.024824660913927432	0.3124225752800255	0.26759983555030903	0.03754429546345752	0.30073854172946174	0.32385957755645817	0.15712256294791463	0.6962399255534707	0.07857384680702477	0.0989226942545976	0.7272035911647408	0.30345763526108405	0.052072612179358574	0.45820817665187796	0.33685436950714953	0.006042611058489886	0.3396284578777952	0.2886966282416892	-0.007100988351726535	0.3252788168812958	0.3265898316693529	0.013326738528690193	0.3099711486822323	0.3643977968060319
